<?xml version="1.0" ?><svg height="32px" id="SnapChat" style="enable-background:new 0 0 32 32;" version="1.0" viewBox="0 0 32 32" width="32px" xml:space="preserve" xmlns="http://www.w3.org/2000/svg" xmlns:xlink="http://www.w3.org/1999/xlink"><style type="text/css">
	.Drop_x0020_Shadow{fill:none;}
	.Round_x0020_Corners_x0020_2_x0020_pt{fill:#FFFFFF;stroke:#000000;stroke-miterlimit:10;}
	.Live_x0020_Reflect_x0020_X{fill:none;}
	.Bevel_x0020_Soft{fill:url(#SVGID_1_);}
	.Dusk{fill:#FFFFFF;}
	.Foliage_GS{fill:#FFDD00;}
	.Pompadour_GS{fill-rule:evenodd;clip-rule:evenodd;fill:#44ADE2;}
	.st0{fill:#BE1E2D;}
	.st1{fill:#FFFFFF;}
</style><linearGradient gradientUnits="userSpaceOnUse" id="SVGID_1_" x1="-188" x2="-187.2929" y1="-94" y2="-93.2929"><stop offset="0" style="stop-color:#DEDFE3"/><stop offset="0.1738" style="stop-color:#D8D9DD"/><stop offset="0.352" style="stop-color:#C9CACD"/><stop offset="0.5323" style="stop-color:#B4B5B8"/><stop offset="0.7139" style="stop-color:#989A9C"/><stop offset="0.8949" style="stop-color:#797C7E"/><stop offset="1" style="stop-color:#656B6C"/></linearGradient><g id="XMLID_17_"><circle class="st0" cx="16.3" cy="15.7" id="XMLID_872_" r="15.1"/><g id="twwubg.tif_4_"><g id="XMLID_786_"><path class="st1" d="M5.3,21.2c0,0,0-0.1,0-0.1c0.5-0.1,1.1-0.3,1.6-0.5c0.9-0.4,1.6-1,2.2-1.8     c0.6-0.7,1-1.4,1.4-2.2c0.2-0.6,0.1-1.2-0.5-1.6c-0.1-0.1-0.3-0.2-0.5-0.3c-0.3-0.2-0.7-0.2-1-0.4c-0.3-0.1-0.5-0.2-0.7-0.5     c-0.1-0.1-0.1-0.3,0-0.4c0.2-0.2,0.5-0.3,0.8-0.2c0.2,0.1,0.3,0.1,0.5,0.2c0.5,0.1,1,0.2,1.4,0c0.2-0.1,0.3-0.2,0.3-0.5     c0-0.6-0.1-1.1-0.1-1.7c0-0.7,0-1.4,0-2.1c0-0.5,0.1-1,0.4-1.5c0.8-1.6,2-2.6,3.6-3.1c0.4-0.1,0.8-0.2,1.3-0.2c0.4,0,0.8,0,1.2,0     c0,0,0.1,0,0.1,0c0.8,0.1,1.5,0.3,2.2,0.6c1.3,0.7,2.3,1.7,2.8,3.2c0.1,0.3,0.1,0.6,0.2,1c0,0.5,0.1,1,0,1.5     c0,0.8-0.1,1.5-0.1,2.3c0,0.2,0.1,0.3,0.2,0.4c0.2,0.1,0.4,0.2,0.7,0.2c0.4,0,0.8-0.1,1.2-0.3c0.3-0.1,0.6-0.1,0.8,0.1     c0.3,0.2,0.3,0.4,0.1,0.6c-0.3,0.2-0.6,0.4-0.9,0.5c-0.4,0.1-0.8,0.2-1.1,0.4c-0.7,0.4-0.9,1-0.6,1.7c0.5,1.3,1.4,2.4,2.4,3.2     c0.8,0.6,1.7,1,2.7,1.2c0,0,0,0.1,0,0.1c-0.2,0.2-0.4,0.3-0.7,0.4c-0.6,0.2-1.2,0.4-1.9,0.5c-0.3,0-0.5,0.2-0.6,0.5     c-0.1,0.3-0.1,0.6-0.2,0.8c0,0.1-0.1,0.2-0.2,0.2c-0.4,0-0.8-0.1-1.2-0.2c-0.6,0-1.3,0-1.9,0.2c-0.6,0.2-1,0.6-1.5,0.9     c-0.5,0.3-0.9,0.6-1.4,0.8c-0.6,0.2-1.2,0.2-1.8,0.2c-0.5,0-0.9-0.1-1.4-0.3c-0.6-0.3-1.2-0.7-1.7-1.1c-0.7-0.6-1.6-0.8-2.5-0.8     c-0.6,0-1.1,0.1-1.7,0.2c-0.2,0-0.3,0-0.3-0.2c-0.1-0.3-0.1-0.6-0.2-0.9c-0.1-0.2-0.2-0.4-0.5-0.4c-0.5-0.1-1.1-0.2-1.6-0.4     C5.9,21.6,5.5,21.5,5.3,21.2z" id="XMLID_787_"/></g></g></g></svg>